<?xml version="1.0" encoding="UTF-8" standalone="no"?>
<!-- Created with Inkscape (http://www.inkscape.org/) -->

<svg
   xmlns:dc="http://purl.org/dc/elements/1.1/"
   xmlns:cc="http://creativecommons.org/ns#"
   xmlns:rdf="http://www.w3.org/1999/02/22-rdf-syntax-ns#"
   xmlns:svg="http://www.w3.org/2000/svg"
   xmlns="http://www.w3.org/2000/svg"
   version="1.1"
   width="765"
   height="500"
   id="svg2">
  <defs
     id="defs4" />
  <metadata
     id="metadata7">
    <rdf:RDF>
      <cc:Work
         rdf:about="">
        <dc:format>image/svg+xml</dc:format>
        <dc:type
           rdf:resource="http://purl.org/dc/dcmitype/StillImage" />
        <dc:title></dc:title>
      </cc:Work>
    </rdf:RDF>
  </metadata>
  <g
     transform="translate(0,-552.36215)"
     id="layer1">
    <rect
       width="763.66345"
       height="521.99786"
       x="-1559.5491"
       y="179.14359"
       id="rect3992"
       style="fill:#333333;fill-opacity:1;stroke:none" />
    <g
       transform="translate(-460.77583,-116.66651)"
       id="g4006">
      <g
         transform="matrix(0.68880409,0,0,0.69440961,1774.7859,3276.396)"
         id="g3933">
        <path
           d="m -2379.658,-4436.7319 850.4834,0 0,97.2803 -850.4834,0 z"
           id="rect3935"
           style="fill:#cf3b2c;fill-opacity:1;stroke:none" />
        <g
           id="text3937"
           style="font-size:209.3377533px;font-style:normal;font-variant:normal;font-weight:bold;font-stretch:normal;line-height:125%;letter-spacing:0px;word-spacing:0px;fill:#ffffff;fill-opacity:1;stroke:none;font-family:Blutter;-inkscape-font-specification:Blutter Bold">
          <path
             d="m -2340.7839,-4369.2564 c -6.4586,0 -11.1675,-2.4187 -14.1266,-7.2563 l -0.2702,0 0.1158,3.2422 c 0.1029,1.9041 0.1544,3.9884 0.1544,6.2528 l 0,15.9793 -3.8211,0 0,-60.9452 3.2421,0 0.7334,5.9826 0.2316,0 c 2.8819,-4.5287 7.4878,-6.7931 13.8178,-6.7931 5.6609,0 9.9709,1.8655 12.9301,5.5966 2.9848,3.7053 4.4772,9.109 4.4773,16.2108 -10e-5,6.8961 -1.5697,12.2483 -4.7089,16.0565 -3.1135,3.7826 -7.3721,5.6738 -12.7757,5.6738 m -0.077,-3.3965 c 4.2972,0 7.6165,-1.5954 9.9581,-4.7861 2.3673,-3.1907 3.5509,-7.6551 3.551,-13.3933 -1e-4,-12.3253 -4.4516,-18.488 -13.3547,-18.4881 -4.889,10e-5 -8.4786,1.351 -10.7686,4.0527 -2.2902,2.6761 -3.4352,7.0505 -3.4352,13.1231 l 0,1.2351 c 0,6.5616 1.0936,11.2447 3.2808,14.0495 2.2129,2.8047 5.8024,4.2071 10.7686,4.2071"
             id="path3270"
             style="font-size:79.04728699px;font-weight:300;fill:#ffffff;font-family:Open Sans;-inkscape-font-specification:Open Sans Light" />
          <path
             d="m -2294.6987,-4369.2564 c -6.0984,0 -10.8587,-1.8784 -14.281,-5.6352 -3.3966,-3.7568 -5.0949,-9.0189 -5.0949,-15.7863 0,-6.6902 1.6469,-12.0423 4.9405,-16.0565 3.2936,-4.0398 7.7323,-6.0597 13.3161,-6.0597 4.9404,0 8.8387,1.724 11.695,5.172 2.8561,3.4481 4.2842,8.1312 4.2843,14.0494 l 0,3.0878 -30.2217,0 c 0.051,5.7639 1.3895,10.164 4.0141,13.2003 2.6503,3.0363 6.4329,4.5545 11.3476,4.5545 2.393,0 4.4901,-0.1673 6.2914,-0.5018 1.8269,-0.3345 4.1298,-1.055 6.9089,-2.1614 l 0,3.4737 c -2.3674,1.0293 -4.5545,1.724 -6.5616,2.0843 -2.0071,0.3859 -4.22,0.5789 -6.6387,0.5789 m -1.1193,-40.1412 c -4.0399,1e-4 -7.2821,1.3381 -9.7265,4.0141 -2.4446,2.6504 -3.8727,6.4844 -4.2843,11.502 l 25.9373,0 c 0,-4.8632 -1.055,-8.6586 -3.1649,-11.3862 -2.1101,-2.7532 -5.0306,-4.1298 -8.7616,-4.1299"
             id="path3272"
             style="font-size:79.04728699px;font-weight:300;fill:#ffffff;font-family:Open Sans;-inkscape-font-specification:Open Sans Light" />
          <path
             d="m -2239.0028,-4370.0283 0,-27.2111 c 0,-4.22 -0.8878,-7.282 -2.6632,-9.1862 -1.7755,-1.9298 -4.5288,-2.8947 -8.2598,-2.8948 -5.0177,10e-5 -8.6973,1.2738 -11.0389,3.8212 -2.3158,2.5217 -3.4737,6.6259 -3.4737,12.3125 l 0,23.1584 -3.8211,0 0,-41.9553 3.2421,0 0.7334,5.751 0.2316,0 c 2.7275,-4.3743 7.5779,-6.5615 14.5511,-6.5615 9.5207,0 14.281,5.1077 14.281,15.3231 l 0,27.4427 -3.7825,0"
             id="path3274"
             style="font-size:79.04728699px;font-weight:300;fill:#ffffff;font-family:Open Sans;-inkscape-font-specification:Open Sans Light" />
          <path
             d="m -2204.6898,-4369.2564 c -6.0984,0 -10.8587,-1.8784 -14.281,-5.6352 -3.3966,-3.7568 -5.0948,-9.0189 -5.0948,-15.7863 0,-6.6902 1.6468,-12.0423 4.9404,-16.0565 3.2937,-4.0398 7.7323,-6.0597 13.3161,-6.0597 4.9404,0 8.8388,1.724 11.695,5.172 2.8561,3.4481 4.2842,8.1312 4.2843,14.0494 l 0,3.0878 -30.2217,0 c 0.051,5.7639 1.3895,10.164 4.0141,13.2003 2.6503,3.0363 6.4329,4.5545 11.3476,4.5545 2.393,0 4.4901,-0.1673 6.2914,-0.5018 1.8269,-0.3345 4.1299,-1.055 6.9089,-2.1614 l 0,3.4737 c -2.3673,1.0293 -4.5545,1.724 -6.5615,2.0843 -2.0071,0.3859 -4.22,0.5789 -6.6388,0.5789 m -1.1193,-40.1412 c -4.0399,1e-4 -7.282,1.3381 -9.7265,4.0141 -2.4445,2.6504 -3.8726,6.4844 -4.2843,11.502 l 25.9374,0 c -10e-5,-4.8632 -1.0551,-8.6586 -3.165,-11.3862 -2.11,-2.7532 -5.0306,-4.1298 -8.7616,-4.1299"
             id="path3276"
             style="font-size:79.04728699px;font-weight:300;fill:#ffffff;font-family:Open Sans;-inkscape-font-specification:Open Sans Light" />
          <path
             d="m -2161.731,-4412.7941 c 1.7755,0 3.6796,0.1801 5.7124,0.5403 l -0.7333,3.6668 c -1.7498,-0.4374 -3.5639,-0.6561 -5.4422,-0.6562 -3.5767,1e-4 -6.5101,1.5182 -8.8002,4.5545 -2.2901,3.0364 -3.4352,6.8703 -3.4352,11.502 l 0,23.1584 -3.8211,0 0,-41.9553 3.2422,0 0.3859,7.5651 0.2702,0 c 1.724,-3.0878 3.5638,-5.2492 5.5194,-6.4844 1.9556,-1.2608 4.3229,-1.8912 7.1019,-1.8912"
             id="path3278"
             style="font-size:79.04728699px;font-weight:300;fill:#ffffff;font-family:Open Sans;-inkscape-font-specification:Open Sans Light" />
          <path
             d="m -2143.706,-4370.0283 -3.8212,0 0,-41.9553 3.8212,0 0,41.9553 m -4.3615,-53.6117 c 0,-2.4702 0.8105,-3.7053 2.4316,-3.7053 0.7977,0 1.4152,0.3217 1.8527,0.9649 0.4631,0.6434 0.6947,1.5568 0.6947,2.7404 0,1.158 -0.2316,2.0715 -0.6947,2.7404 -0.4375,0.6691 -1.055,1.0036 -1.8527,1.0036 -1.6211,0 -2.4316,-1.248 -2.4316,-3.744"
             id="path3280"
             style="font-size:79.04728699px;font-weight:300;fill:#ffffff;font-family:Open Sans;-inkscape-font-specification:Open Sans Light" />
          <path
             d="m -2077.2029,-4370.0283 0,-27.5199 c 0,-4.0913 -0.7977,-7.0761 -2.393,-8.9546 -1.5954,-1.8783 -4.0399,-2.8175 -7.3335,-2.8176 -4.2972,10e-5 -7.4751,1.1837 -9.5335,3.551 -2.0586,2.3673 -3.0879,6.0855 -3.0878,11.1546 l 0,24.5865 -3.8983,0 0,-28.6778 c -10e-5,-7.0762 -3.2422,-10.6142 -9.7266,-10.6143 -4.4001,10e-5 -7.6037,1.2866 -9.6107,3.8598 -2.0071,2.5474 -3.0106,6.6387 -3.0106,12.2739 l 0,23.1584 -3.8211,0 0,-41.9553 3.165,0 0.8105,5.751 0.2316,0 c 1.1579,-2.0842 2.8047,-3.6924 4.9404,-4.8247 2.1357,-1.1578 4.4902,-1.7368 7.0633,-1.7368 6.613,0 10.8587,2.4831 12.7372,7.4492 l 0.1543,0 c 1.3638,-2.393 3.1907,-4.2328 5.4809,-5.5194 2.3158,-1.2865 4.9404,-1.9298 7.8738,-1.9298 4.5802,0 8.0153,1.2223 10.3055,3.6667 2.29,2.4445 3.4351,6.33 3.4352,11.6564 l 0,27.4427 -3.7826,0"
             id="path3282"
             style="font-size:79.04728699px;font-weight:300;fill:#ffffff;font-family:Open Sans;-inkscape-font-specification:Open Sans Light" />
          <path
             d="m -2034.3599,-4370.0283 -0.9649,-6.6388 -0.3088,0 c -2.11,2.7019 -4.2843,4.6189 -6.5229,5.751 -2.213,1.1065 -4.8376,1.6597 -7.8739,1.6597 -4.117,0 -7.3206,-1.055 -9.6107,-3.165 -2.2901,-2.1099 -3.4352,-5.0305 -3.4352,-8.7615 0,-4.0913 1.6983,-7.2692 5.0949,-9.5336 3.4223,-2.2643 8.3627,-3.4608 14.8214,-3.5895 l 7.9896,-0.2316 0,-2.779 c 0,-3.9884 -0.8106,-6.999 -2.4316,-9.0318 -1.6212,-2.0327 -4.2329,-3.0491 -7.8353,-3.0492 -3.8855,1e-4 -7.9125,1.0808 -12.0809,3.2422 l -1.4281,-3.3194 c 4.6059,-2.1614 9.1604,-3.2421 13.6634,-3.2421 4.6059,0 8.0411,1.1965 10.3055,3.5895 2.2901,2.3931 3.4351,6.1241 3.4351,11.1932 l 0,27.9059 -2.8176,0 m -15.4389,-2.7018 c 4.4773,0 8.0025,-1.2737 10.5757,-3.8212 2.5988,-2.5731 3.8983,-6.1369 3.8983,-10.6914 l 0,-4.1299 -7.3335,0.3087 c -5.8925,0.2831 -10.0996,1.2094 -12.6213,2.7791 -2.496,1.5439 -3.7439,3.9626 -3.7439,7.2562 0,2.6247 0.7976,4.6703 2.393,6.137 1.6211,1.441 3.8983,2.1615 6.8317,2.1615"
             id="path3284"
             style="font-size:79.04728699px;font-weight:300;fill:#ffffff;font-family:Open Sans;-inkscape-font-specification:Open Sans Light" />
          <path
             d="m -1992.5204,-4370.0283 -0.9649,-6.6388 -0.3088,0 c -2.11,2.7019 -4.2843,4.6189 -6.5229,5.751 -2.213,1.1065 -4.8376,1.6597 -7.8739,1.6597 -4.1171,0 -7.3206,-1.055 -9.6107,-3.165 -2.2901,-2.1099 -3.4352,-5.0305 -3.4352,-8.7615 0,-4.0913 1.6983,-7.2692 5.0949,-9.5336 3.4222,-2.2643 8.3627,-3.4608 14.8213,-3.5895 l 7.9897,-0.2316 0,-2.779 c -10e-5,-3.9884 -0.8106,-6.999 -2.4317,-9.0318 -1.6211,-2.0327 -4.2328,-3.0491 -7.8352,-3.0492 -3.8855,1e-4 -7.9125,1.0808 -12.081,3.2422 l -1.4281,-3.3194 c 4.606,-2.1614 9.1604,-3.2421 13.6635,-3.2421 4.6059,0 8.0411,1.1965 10.3055,3.5895 2.29,2.3931 3.4351,6.1241 3.4351,11.1932 l 0,27.9059 -2.8176,0 m -15.4389,-2.7018 c 4.4773,0 8.0025,-1.2737 10.5757,-3.8212 2.5988,-2.5731 3.8983,-6.1369 3.8983,-10.6914 l 0,-4.1299 -7.3335,0.3087 c -5.8925,0.2831 -10.0996,1.2094 -12.6213,2.7791 -2.496,1.5439 -3.744,3.9626 -3.744,7.2562 0,2.6247 0.7977,4.6703 2.3931,6.137 1.621,1.441 3.8983,2.1615 6.8317,2.1615"
             id="path3286"
             style="font-size:79.04728699px;font-weight:300;fill:#ffffff;font-family:Open Sans;-inkscape-font-specification:Open Sans Light" />
          <path
             d="m -1946.8984,-4370.0283 0,-27.2111 c 0,-4.22 -0.8877,-7.282 -2.6632,-9.1862 -1.7755,-1.9298 -4.5288,-2.8947 -8.2598,-2.8948 -5.0177,10e-5 -8.6973,1.2738 -11.0388,3.8212 -2.3159,2.5217 -3.4738,6.6259 -3.4738,12.3125 l 0,23.1584 -3.8211,0 0,-41.9553 3.2421,0 0.7334,5.751 0.2316,0 c 2.7275,-4.3743 7.5779,-6.5615 14.5512,-6.5615 9.5206,0 14.2809,5.1077 14.281,15.3231 l 0,27.4427 -3.7826,0"
             id="path3288"
             style="font-size:79.04728699px;font-weight:300;fill:#ffffff;font-family:Open Sans;-inkscape-font-specification:Open Sans Light" />
          <path
             d="m -1882.9812,-4380.9514 c 0,3.7569 -1.4281,6.6516 -4.2843,8.6844 -2.8562,2.0071 -6.909,3.0106 -12.1582,3.0106 -5.6095,0 -10.061,-0.862 -13.3546,-2.586 l 0,-4.1299 c 4.2199,2.11 8.6715,3.165 13.3546,3.165 4.1428,0 7.282,-0.6819 9.4178,-2.0457 2.1614,-1.3895 3.2421,-3.2293 3.2422,-5.5194 -10e-5,-2.11 -0.8621,-3.8854 -2.5861,-5.3264 -1.6983,-1.441 -4.503,-2.8562 -8.4142,-4.2457 -4.1942,-1.5182 -7.1405,-2.8176 -8.8388,-3.8984 -1.6983,-1.1064 -2.9848,-2.3415 -3.8597,-3.7053 -0.8491,-1.3895 -1.2737,-3.0749 -1.2737,-5.0562 0,-3.1393 1.3123,-5.6224 3.9369,-7.4493 2.6504,-1.8269 6.3428,-2.7404 11.0774,-2.7404 4.5288,0 8.8259,0.8491 12.8915,2.5474 l -1.4281,3.4737 c -4.117,-1.6982 -7.9382,-2.5473 -11.4634,-2.5474 -3.4223,10e-5 -6.1369,0.5662 -8.144,1.6983 -2.0071,1.1322 -3.0106,2.7018 -3.0106,4.7089 0,2.1872 0.772,3.9369 2.3159,5.2492 1.5696,1.3123 4.6188,2.779 9.1475,4.4001 3.7825,1.3638 6.5358,2.5989 8.2598,3.7053 1.724,1.0808 3.0106,2.3159 3.8598,3.7054 0.8748,1.3895 1.3123,3.0235 1.3123,4.9018"
             id="path3290"
             style="font-size:79.04728699px;font-weight:300;fill:#ffffff;font-family:Open Sans;-inkscape-font-specification:Open Sans Light" />
          <path
             d="m -1868.2756,-4370.0283 -3.8212,0 0,-41.9553 3.8212,0 0,41.9553 m -4.3615,-53.6117 c 0,-2.4702 0.8105,-3.7053 2.4316,-3.7053 0.7977,0 1.4152,0.3217 1.8527,0.9649 0.4631,0.6434 0.6947,1.5568 0.6947,2.7404 0,1.158 -0.2316,2.0715 -0.6947,2.7404 -0.4375,0.6691 -1.055,1.0036 -1.8527,1.0036 -1.6211,0 -2.4316,-1.248 -2.4316,-3.744"
             id="path3292"
             style="font-size:79.04728699px;font-weight:300;fill:#ffffff;font-family:Open Sans;-inkscape-font-specification:Open Sans Light" />
          <path
             d="m -1828.173,-4380.9514 c -10e-5,3.7569 -1.4282,6.6516 -4.2843,8.6844 -2.8563,2.0071 -6.909,3.0106 -12.1582,3.0106 -5.6095,0 -10.061,-0.862 -13.3547,-2.586 l 0,-4.1299 c 4.22,2.11 8.6715,3.165 13.3547,3.165 4.1428,0 7.282,-0.6819 9.4177,-2.0457 2.1615,-1.3895 3.2422,-3.2293 3.2422,-5.5194 0,-2.11 -0.862,-3.8854 -2.586,-5.3264 -1.6983,-1.441 -4.503,-2.8562 -8.4142,-4.2457 -4.1943,-1.5182 -7.1405,-2.8176 -8.8388,-3.8984 -1.6983,-1.1064 -2.9849,-2.3415 -3.8597,-3.7053 -0.8492,-1.3895 -1.2737,-3.0749 -1.2737,-5.0562 0,-3.1393 1.3123,-5.6224 3.9369,-7.4493 2.6503,-1.8269 6.3428,-2.7404 11.0774,-2.7404 4.5287,0 8.8259,0.8491 12.8915,2.5474 l -1.4281,3.4737 c -4.1171,-1.6982 -7.9382,-2.5473 -11.4634,-2.5474 -3.4223,10e-5 -6.137,0.5662 -8.144,1.6983 -2.0071,1.1322 -3.0106,2.7018 -3.0106,4.7089 0,2.1872 0.7719,3.9369 2.3158,5.2492 1.5696,1.3123 4.6188,2.779 9.1476,4.4001 3.7825,1.3638 6.5358,2.5989 8.2598,3.7053 1.724,1.0808 3.0106,2.3159 3.8597,3.7054 0.8749,1.3895 1.3123,3.0235 1.3124,4.9018"
             id="path3294"
             style="font-size:79.04728699px;font-weight:300;fill:#ffffff;font-family:Open Sans;-inkscape-font-specification:Open Sans Light" />
          <path
             d="m -1783.7475,-4370.0283 -9.1862,-28.0603 c -0.5918,-1.9041 -1.3509,-4.6959 -2.2772,-8.3756 l -0.2316,0 -0.8106,2.8562 -1.7368,5.5966 -9.3406,27.9831 -3.7825,0 -12.0038,-41.9553 4.0913,0 6.716,24.3163 c 1.5696,6.0212 2.5988,10.447 3.0878,13.2775 l 0.2315,0 c 1.5182,-6.0212 2.6246,-10.0224 3.3194,-12.0038 l 8.6458,-25.59 3.4738,0 8.2212,25.5128 c 1.8526,6.0469 2.9848,10.0482 3.3966,12.0038 l 0.2315,0 c 0.2058,-1.6726 1.2351,-6.1498 3.0878,-13.4319 l 6.4072,-24.0847 3.8597,0 -11.3862,41.9553 -4.0141,0"
             id="path3296"
             style="font-size:79.04728699px;font-weight:300;fill:#ffffff;font-family:Open Sans;-inkscape-font-specification:Open Sans Light" />
          <path
             d="m -1734.6903,-4370.0283 -0.965,-6.6388 -0.3087,0 c -2.1101,2.7019 -4.2844,4.6189 -6.523,5.751 -2.2129,1.1065 -4.8375,1.6597 -7.8738,1.6597 -4.1171,0 -7.3207,-1.055 -9.6108,-3.165 -2.2901,-2.1099 -3.4351,-5.0305 -3.4351,-8.7615 0,-4.0913 1.6982,-7.2692 5.0948,-9.5336 3.4223,-2.2643 8.3627,-3.4608 14.8214,-3.5895 l 7.9896,-0.2316 0,-2.779 c 0,-3.9884 -0.8106,-6.999 -2.4316,-9.0318 -1.6211,-2.0327 -4.2329,-3.0491 -7.8353,-3.0492 -3.8854,1e-4 -7.9124,1.0808 -12.0809,3.2422 l -1.4281,-3.3194 c 4.6059,-2.1614 9.1604,-3.2421 13.6634,-3.2421 4.6059,0 8.0411,1.1965 10.3055,3.5895 2.2901,2.3931 3.4351,6.1241 3.4352,11.1932 l 0,27.9059 -2.8176,0 m -15.439,-2.7018 c 4.4773,0 8.0025,-1.2737 10.5757,-3.8212 2.5989,-2.5731 3.8983,-6.1369 3.8983,-10.6914 l 0,-4.1299 -7.3335,0.3087 c -5.8925,0.2831 -10.0996,1.2094 -12.6213,2.7791 -2.4959,1.5439 -3.7439,3.9626 -3.7439,7.2562 0,2.6247 0.7977,4.6703 2.393,6.137 1.6211,1.441 3.8983,2.1615 6.8317,2.1615"
             id="path3298"
             style="font-size:79.04728699px;font-weight:300;fill:#ffffff;font-family:Open Sans;-inkscape-font-specification:Open Sans Light" />
          <path
             d="m -1680.0752,-4412.7941 c 5.8668,0 10.2797,1.8527 13.2389,5.558 2.9848,3.6796 4.4773,9.0704 4.4773,16.1722 0,6.9733 -1.5697,12.3512 -4.7089,16.1337 -3.1135,3.7826 -7.5007,5.6738 -13.1617,5.6738 -2.9848,0 -5.6738,-0.6175 -8.0668,-1.8526 -2.393,-1.2352 -4.2843,-2.9849 -5.6738,-5.2493 l -0.3474,0 -1.0807,6.33 -2.393,0 0,-60.0574 3.8211,0 0,15.0915 c 0,2.2644 -0.052,4.3487 -0.1544,6.2528 l -0.1158,3.2808 0.2702,0 c 1.5953,-2.5217 3.5123,-4.3744 5.751,-5.5581 2.2644,-1.1836 4.979,-1.7754 8.144,-1.7754 m -0.077,3.4737 c -4.9404,10e-5 -8.4785,1.4153 -10.6142,4.2457 -2.1357,2.8305 -3.2036,7.5008 -3.2036,14.0108 l 0,0.6562 c 0,6.33 1.1064,10.8716 3.3194,13.6249 2.2386,2.7532 5.7124,4.1299 10.4212,4.1299 4.5802,0 8.0283,-1.5954 10.3441,-4.7861 2.3158,-3.2164 3.4737,-7.7838 3.4738,-13.702 -10e-5,-12.1196 -4.5803,-18.1793 -13.7407,-18.1794"
             id="path3300"
             style="font-size:79.04728699px;font-weight:300;fill:#ffffff;font-family:Open Sans;-inkscape-font-specification:Open Sans Light" />
          <path
             d="m -1625.2284,-4370.0283 -0.965,-6.6388 -0.3087,0 c -2.11,2.7019 -4.2844,4.6189 -6.523,5.751 -2.2129,1.1065 -4.8375,1.6597 -7.8738,1.6597 -4.1171,0 -7.3207,-1.055 -9.6108,-3.165 -2.2901,-2.1099 -3.4351,-5.0305 -3.4351,-8.7615 0,-4.0913 1.6983,-7.2692 5.0948,-9.5336 3.4223,-2.2643 8.3628,-3.4608 14.8214,-3.5895 l 7.9896,-0.2316 0,-2.779 c 0,-3.9884 -0.8105,-6.999 -2.4316,-9.0318 -1.6211,-2.0327 -4.2329,-3.0491 -7.8352,-3.0492 -3.8855,1e-4 -7.9125,1.0808 -12.081,3.2422 l -1.4281,-3.3194 c 4.6059,-2.1614 9.1604,-3.2421 13.6634,-3.2421 4.606,0 8.0411,1.1965 10.3055,3.5895 2.2901,2.3931 3.4351,6.1241 3.4352,11.1932 l 0,27.9059 -2.8176,0 m -15.4389,-2.7018 c 4.4772,0 8.0024,-1.2737 10.5756,-3.8212 2.5989,-2.5731 3.8983,-6.1369 3.8983,-10.6914 l 0,-4.1299 -7.3334,0.3087 c -5.8926,0.2831 -10.0997,1.2094 -12.6214,2.7791 -2.4959,1.5439 -3.7439,3.9626 -3.7439,7.2562 0,2.6247 0.7977,4.6703 2.393,6.137 1.6211,1.441 3.8983,2.1615 6.8318,2.1615"
             id="path3302"
             style="font-size:79.04728699px;font-weight:300;fill:#ffffff;font-family:Open Sans;-inkscape-font-specification:Open Sans Light" />
          <path
             d="m -1592.3435,-4412.7941 c 1.7754,0 3.6796,0.1801 5.7124,0.5403 l -0.7334,3.6668 c -1.7497,-0.4374 -3.5638,-0.6561 -5.4422,-0.6562 -3.5767,1e-4 -6.5101,1.5182 -8.8002,4.5545 -2.2901,3.0364 -3.4351,6.8703 -3.4351,11.502 l 0,23.1584 -3.8212,0 0,-41.9553 3.2422,0 0.386,7.5651 0.2702,0 c 1.724,-3.0878 3.5638,-5.2492 5.5194,-6.4844 1.9556,-1.2608 4.3229,-1.8912 7.1019,-1.8912"
             id="path3304"
             style="font-size:79.04728699px;font-weight:300;fill:#ffffff;font-family:Open Sans;-inkscape-font-specification:Open Sans Light" />
          <path
             d="m -1574.8203,-4411.9836 0,27.1725 c 0,4.22 0.8877,7.2949 2.6632,9.2248 1.7755,1.9041 4.5288,2.8562 8.2598,2.8562 4.9919,0 8.6587,-1.2609 11.0003,-3.7826 2.3672,-2.5216 3.5509,-6.6258 3.5509,-12.3125 l 0,-23.1584 3.7826,0 0,41.9553 -3.2422,0 -0.6948,-5.7896 -0.2315,0 c -2.7276,4.3743 -7.578,6.5615 -14.5512,6.5615 -9.5464,0 -14.3196,-5.1077 -14.3196,-15.3231 l 0,-27.4041 3.7825,0"
             id="path3306"
             style="font-size:79.04728699px;font-weight:300;fill:#ffffff;font-family:Open Sans;-inkscape-font-specification:Open Sans Light" />
        </g>
      </g>
      <path
         d="m 474.99064,-181.01514 0,195.286092 c 13.87469,7.649728 25.63134,21.078567 35.27409,40.333268 11.45669,22.877727 13.26785,45.77525 5.3965,68.66494 -7.1376,20.7553 -20.68706,36.95885 -40.67059,48.56853 l 0,3.82253 48.99021,0 0,-33.08167 c 12.41134,12.90143 26.21353,22.70401 41.40128,29.39972 15.35091,6.53229 31.6793,9.80923 48.99021,9.80923 40.66367,0 74.37349,-13.47157 101.15645,-40.41759 26.78232,-27.10917 40.16431,-60.998313 40.16458,-101.662298 -2.7e-4,-18.780357 -3.33873,-36.6716032 -10.03409,-53.655895 -6.69598,-16.983914 -16.3193,-32.018394 -28.89379,-45.083319 -13.55495,-14.207618 -28.43825,-24.643177 -44.60555,-31.339092 -16.00451,-6.8587 -34.28779,-10.286816 -54.86449,-10.287086 -18.29074,2.7e-4 -35.28011,3.249076 -50.9576,9.781166 -15.51451,6.532606 -29.79834,16.424916 -42.86292,29.652681 l 0,-119.791207 -48.48429,0 z m 137.89209,127.380045 c 25.31258,2.25e-4 47.05214,9.080333 65.17964,27.207389 18.12704,17.9641532 27.17906,39.826762 27.17924,65.629396 -1.8e-4,27.435986 -8.99068,50.379769 -26.95439,68.83357 -17.96416,18.29064 -39.91643,27.43232 -65.88235,27.43223 -23.84321,9e-5 -44.92179,-9.20313 -63.21226,-27.65708 -18.12732,-18.617122 -27.17933,-40.356639 -27.17924,-65.17969 -9e-5,-26.619179 8.90073,-49.3220958 26.70147,-68.102794 17.96389,-18.780294 39.34476,-28.162796 64.16789,-28.163021 z"
         id="text3941"
         style="font-size:557.78820801px;font-style:normal;font-weight:normal;line-height:125%;letter-spacing:0px;word-spacing:-0.06px;fill:#e74c3c;fill-opacity:1;stroke:none;font-family:Sans" />
      <g
         transform="matrix(0.89414459,-0.44777835,0.44777835,0.89414459,0,0)"
         id="text3949"
         style="font-size:501.68466187px;font-style:normal;font-weight:normal;line-height:125%;letter-spacing:0px;word-spacing:0px;fill:#e74c3c;fill-opacity:1;stroke:none;font-family:Sans">
        <path
           d="m 254.80324,263.86594 45.56316,0 c -6e-5,14.20794 3.91935,25.96616 11.75823,35.2747 8.00206,9.14534 17.96389,13.71798 29.88552,13.71794 11.2682,4e-5 20.49513,-3.42944 27.68084,-10.28845 7.34876,-7.02222 11.02321,-15.92255 11.02334,-26.70099 -1.3e-4,-9.47183 -2.61307,-17.47395 -7.83882,-24.0064 -5.06269,-6.53224 -13.30978,-12.08474 -24.74128,-16.65749 -3.91951,-1.63298 -9.47201,-3.75599 -16.6575,-6.36905 -19.1072,-7.18546 -31.27369,-12.90126 -36.49952,-17.14742 -9.63526,-7.67537 -16.73919,-16.33073 -21.3118,-25.9661 -4.57267,-9.79836 -6.85899,-21.06665 -6.85897,-33.80493 -2e-5,-21.88316 7.59383,-40.50034 22.78158,-55.85161 15.35097,-15.350758 34.04981,-23.026264 56.09657,-23.026542 23.02642,2.78e-4 41.31699,6.777587 54.87176,20.331947 13.55447,13.391565 20.98501,32.253715 22.29166,56.586505 l -46.54301,0 c -0.81668,-9.96163 -4.08285,-17.71879 -9.79853,-23.27151 -5.71593,-5.55227 -13.39143,-8.32851 -23.02654,-8.32875 -8.65546,2.4e-4 -15.9227,3.02145 -21.80173,9.06364 -5.71588,5.87934 -8.57378,13.22823 -8.57371,22.04669 -7e-5,15.0246 13.06462,27.3544 39.19411,36.98945 7.34878,2.77641 13.14624,4.98107 17.39239,6.614 20.57676,8.3289 35.19289,18.699 43.84841,31.11033 8.8185,12.41158 13.22784,28.98741 13.22802,49.72753 -1.8e-4,24.16976 -8.16562,44.25672 -24.49632,60.26095 -16.33103,16.00427 -36.90791,24.00639 -61.73073,24.0064 -24.98632,-1e-5 -45.15494,-8.4104 -60.50592,-25.23121 -15.35104,-16.82077 -23.76144,-39.84729 -25.23121,-69.07963"
           id="path3309"
           style="font-variant:normal;font-weight:bold;font-stretch:normal;fill:#e74c3c;font-family:AvantGarde Md BT;-inkscape-font-specification:AvantGarde Md BT Bold" />
      </g>
      <path
         d="m 208.3414,-99.674044 c -17.31091,2.7e-4 -33.63931,3.33874 -48.99012,10.034128 -15.18784,6.532607 -28.99004,16.155955 -41.40138,28.893799 l 0,-33.053607 -48.990115,0 0,356.647264 48.512255,0 0,-119.76306 c 13.06468,13.228 27.34852,23.18186 42.86293,29.87749 15.67749,6.53238 32.66695,9.78117 50.95769,9.78117 20.5767,0 38.85998,-3.33846 54.86449,-10.03409 16.1673,-6.85896 31.0506,-17.38422 44.60546,-31.59205 12.57449,-13.22798 22.19781,-28.32402 28.8938,-45.308197 4.97369,-12.616656 5.25125,-22.884188 6.5304,-36.492263 -9.76696,-2.840118 -22.63565,-15.589654 -22.63565,-15.589654 -8.97277,-7.107011 -16.47536,-16.695965 -22.51351,-28.753264 -10.37298,-20.7132788 -12.01775,-41.932074 -4.91873,-63.661919 1.94706,-5.853178 4.40804,-11.295015 7.33592,-16.330055 -25.75159,-23.103598 -57.4603,-34.655442 -95.11344,-34.655692 z m -1.93941,46.038949 c 25.96592,2.25e-4 47.91819,9.231526 65.88235,27.685205 17.96381,18.4540752 26.95421,41.308202 26.95448,68.58061 -2.7e-4,25.802904 -9.08035,47.783276 -27.20739,65.91047 -18.1275,17.96402 -39.83891,26.92639 -65.15158,26.9263 -24.82313,9e-5 -46.204,-9.38243 -64.1678,-28.163 -17.80083,-18.780432 -26.70156,-41.483351 -26.70156,-68.1028 0,-24.822781 9.05201,-46.4445438 27.17933,-64.898619 18.29047,-18.616986 39.36896,-27.937941 63.21217,-27.938166 z"
         id="text3953"
         style="font-size:557.78820801px;font-style:normal;font-weight:normal;line-height:125%;letter-spacing:0px;word-spacing:-0.06px;fill:#e74c3c;fill-opacity:1;stroke:none;font-family:Sans" />
    </g>
    <g
       transform="translate(-8.7777131,223.66494)"
       id="g3994">
      <path
         d="m 458.07115,351.94935 0,195.2861 c 13.87469,7.64973 25.63134,21.07858 35.27409,40.33332 11.45669,22.87768 13.26785,45.77524 5.39651,68.66488 -7.1376,20.75533 -20.68706,36.95888 -40.6706,48.56857 l 0,3.82252 48.99021,0 0,-33.08167 c 12.41134,12.90143 26.21353,22.70401 41.40128,29.39972 15.35091,6.5323 31.6793,9.80924 48.99021,9.80924 40.66367,0 74.37349,-13.47158 101.15645,-40.41759 26.78232,-27.10918 40.16431,-60.99834 40.16458,-101.66228 -2.7e-4,-18.78039 -3.33873,-36.67161 -10.03408,-53.65594 -6.69599,-16.98389 -16.31931,-32.01838 -28.8938,-45.08332 -13.55495,-14.20757 -28.43824,-24.64315 -44.60555,-31.33905 -16.00451,-6.85869 -34.28779,-10.28682 -54.86449,-10.28709 -18.29074,2.7e-4 -35.28011,3.24906 -50.9576,9.78117 -15.5145,6.53256 -29.79834,16.4249 -42.86292,29.65264 l 0,-119.79122 -48.48429,0 z m 137.89209,127.38006 c 25.31258,2.7e-4 47.05214,9.08034 65.17964,27.20739 18.12705,17.96416 27.17906,39.82676 27.17924,65.62944 -1.8e-4,27.43602 -8.99067,50.37972 -26.95439,68.83352 -17.96416,18.29065 -39.91643,27.43234 -65.88235,27.43225 -23.84321,9e-5 -44.92179,-9.20312 -63.21226,-27.6571 -18.12731,-18.61705 -27.17933,-40.35661 -27.17924,-65.17964 -9e-5,-26.61917 8.90073,-49.3221 26.70147,-68.10284 17.96389,-18.7803 39.34476,-28.16275 64.16789,-28.16302 z"
         id="path3976"
         style="font-size:557.78820801px;font-style:normal;font-weight:normal;line-height:125%;letter-spacing:0px;word-spacing:-0.06px;fill:#e74c3c;fill-opacity:1;stroke:none;font-family:Sans" />
      <g
         transform="matrix(0.89414459,-0.44777835,0.44777835,0.89414459,0,0)"
         id="text3978"
         style="font-size:501.68466187px;font-style:normal;font-weight:normal;line-height:125%;letter-spacing:0px;word-spacing:0px;fill:#e74c3c;fill-opacity:1;stroke:none;font-family:Sans">
        <path
           d="m 1.0246767,732.8371 45.5631573,0 c -5.5e-5,14.20794 3.919352,25.96616 11.758235,35.27471 8.002056,9.14533 17.963883,13.71797 29.885512,13.71793 11.268199,4e-5 20.495139,-3.42944 27.680839,-10.28845 7.34877,-7.02222 11.02321,-15.92254 11.02335,-26.70099 -1.4e-4,-9.47183 -2.61308,-17.47395 -7.83882,-24.0064 -5.0627,-6.53224 -13.30979,-12.08474 -24.741289,-16.65749 -3.919511,-1.63297 -9.472005,-3.75599 -16.657498,-6.36905 C 58.590964,690.6219 46.42447,684.9061 41.198644,680.65994 c -9.635261,-7.67537 -16.739187,-16.33073 -21.3118,-25.9661 -4.572671,-9.79836 -6.858992,-21.06665 -6.85897,-33.80493 -2.2e-5,-21.88316 7.59383,-40.50034 22.781579,-55.85161 15.350968,-15.35076 34.049808,-23.02626 56.096576,-23.02654 23.026421,2.8e-4 41.316991,6.77759 54.871761,20.33195 13.55446,13.39156 20.985,32.25371 22.29165,56.5865 l -46.54301,0 c -0.81667,-9.96163 -4.08285,-17.71879 -9.79853,-23.27151 -5.71592,-5.55227 -13.391428,-8.32851 -23.02654,-8.32875 -8.655457,2.4e-4 -15.922692,3.02145 -21.801726,9.06364 -5.715879,5.87934 -8.573781,13.22823 -8.573712,22.04669 -6.9e-5,15.0246 13.064623,27.3544 39.194114,36.98945 7.348784,2.77641 13.146234,4.98107 17.392384,6.614 20.57677,8.3289 35.19289,18.699 43.84842,31.11033 8.8185,12.41159 13.22783,28.98741 13.22801,49.72753 -1.8e-4,24.16976 -8.16561,44.25672 -24.49632,60.26095 -16.33102,16.00427 -36.90791,24.00639 -61.730728,24.0064 -24.986319,-10e-6 -45.154937,-8.4104 -60.505914,-25.23121 C 10.90484,785.09596 2.4944445,762.06944 1.0246767,732.8371"
           id="path3377"
           style="font-variant:normal;font-weight:bold;font-stretch:normal;fill:#e74c3c;font-family:AvantGarde Md BT;-inkscape-font-specification:AvantGarde Md BT Bold" />
      </g>
      <path
         d="m 191.42191,433.29046 c -17.31091,2.7e-4 -33.6393,3.33881 -48.99012,10.03417 -15.18784,6.53256 -28.99004,16.15597 -41.40137,28.8938 l 0,-33.05361 -48.990123,0 0,356.64724 48.512263,0 0,-119.76306 c 13.06467,13.228 27.3485,23.18186 42.86293,29.87749 15.67748,6.53238 32.66694,9.78117 50.95768,9.78117 20.5767,0 38.85998,-3.33846 54.86449,-10.03409 16.16731,-6.85896 31.0506,-17.38422 44.60546,-31.59205 12.57449,-13.22801 22.19781,-28.32402 28.8938,-45.30817 4.97369,-12.61668 5.25125,-22.88416 6.5304,-36.49226 -9.76696,-2.8401 -22.63565,-15.5897 -22.63565,-15.5897 -8.97277,-7.10693 -16.47535,-16.6959 -22.51351,-28.75322 -10.37298,-20.71333 -12.01775,-41.93212 -4.91873,-63.66197 1.94706,-5.85314 4.40804,-11.29498 7.33592,-16.33001 -25.75159,-23.10361 -57.4603,-34.65546 -95.11344,-34.65573 z m -1.93941,46.03895 c 25.96592,2.7e-4 47.91819,9.23153 65.88235,27.68525 17.96381,18.45407 26.95421,41.30819 26.95448,68.58061 -2.7e-4,25.80286 -9.08034,47.78328 -27.20739,65.91041 -18.1275,17.96408 -39.83891,26.92642 -65.15158,26.92633 -24.82312,9e-5 -46.204,-9.38246 -64.1678,-28.16302 -17.80083,-18.78039 -26.701559,-41.48331 -26.701559,-68.10275 0,-24.82277 9.052009,-46.44459 27.179329,-64.89867 18.29047,-18.61696 39.36896,-27.93789 63.21217,-27.93816 z"
         id="path3982"
         style="font-size:557.78820801px;font-style:normal;font-weight:normal;line-height:125%;letter-spacing:0px;word-spacing:-0.06px;fill:#e74c3c;fill-opacity:1;stroke:none;font-family:Sans" />
    </g>
    <g
       transform="translate(-1562.7713,-690.55401)"
       id="g4000"
       style="fill:#ffffff">
      <path
         d="m 458.07115,909.58841 0,195.28609 c 13.87469,7.6497 25.63134,21.0786 35.27409,40.3333 11.45669,22.8777 13.26785,45.7752 5.39651,68.6649 -7.1376,20.7553 -20.68706,36.9589 -40.6706,48.5685 l 0,3.8226 48.99021,0 0,-33.0817 c 12.41134,12.9014 26.21353,22.704 41.40128,29.3997 15.35091,6.5323 31.6793,9.8093 48.99021,9.8093 40.66367,0 74.37349,-13.4716 101.15645,-40.4176 26.78232,-27.1092 40.16431,-60.9984 40.16458,-101.6623 -2.7e-4,-18.7804 -3.33873,-36.6716 -10.03408,-53.656 -6.69599,-16.9838 -16.31931,-32.0183 -28.8938,-45.0833 -13.55495,-14.2075 -28.43824,-24.6431 -44.60555,-31.339 -16.00451,-6.85869 -34.28779,-10.28682 -54.86449,-10.28709 -18.29074,2.7e-4 -35.28011,3.24906 -50.9576,9.78117 -15.5145,6.53252 -29.79834,16.42492 -42.86292,29.65262 l 0,-119.79119 -48.48429,0 z m 137.89209,127.37999 c 25.31258,3e-4 47.05214,9.0804 65.17964,27.2074 18.12705,17.9642 27.17906,39.8268 27.17924,65.6295 -1.8e-4,27.436 -8.99067,50.3797 -26.95439,68.8335 -17.96416,18.2906 -39.91643,27.4323 -65.88235,27.4322 -23.84321,10e-5 -44.92179,-9.2031 -63.21226,-27.6571 -18.12731,-18.617 -27.17933,-40.3566 -27.17924,-65.1796 -9e-5,-26.6192 8.90073,-49.3221 26.70147,-68.1028 17.96389,-18.7803 39.34476,-28.1628 64.16789,-28.1631 z"
         id="path3984"
         style="font-size:557.78820801px;font-style:normal;font-weight:normal;line-height:125%;letter-spacing:0px;word-spacing:-0.06px;fill:#ffffff;fill-opacity:1;stroke:none;font-family:Sans" />
      <g
         transform="matrix(0.89414459,-0.44777835,0.44777835,0.89414459,0,0)"
         id="text3986"
         style="font-size:501.68466187px;font-style:normal;font-weight:normal;line-height:125%;letter-spacing:0px;word-spacing:0px;fill:#ffffff;fill-opacity:1;stroke:none;font-family:Sans">
        <path
           d="m -248.67398,1231.4473 45.56316,0 c -5e-5,14.2079 3.91935,25.9661 11.75824,35.2747 8.00205,9.1453 17.96388,13.718 29.88551,13.7179 11.2682,10e-5 20.49514,-3.4294 27.68084,-10.2884 7.34876,-7.0223 11.02321,-15.9226 11.02335,-26.701 -1.4e-4,-9.4719 -2.61308,-17.474 -7.83883,-24.0064 -5.06269,-6.5323 -13.30978,-12.0848 -24.74128,-16.6575 -3.91951,-1.633 -9.47201,-3.756 -16.6575,-6.3691 -19.1072,-7.1854 -31.27369,-12.9012 -36.49952,-17.1474 -9.63526,-7.6754 -16.73919,-16.3307 -21.3118,-25.9661 -4.57267,-9.7983 -6.85899,-21.0666 -6.85897,-33.8049 -2e-5,-21.8832 7.59383,-40.5004 22.78158,-55.8516 15.35097,-15.3508 34.04981,-23.0263 56.09658,-23.0266 23.02641,3e-4 41.31698,6.7776 54.87176,20.332 13.554458,13.3915 20.985001,32.2537 22.291648,56.5865 l -46.543008,0 c -0.81668,-9.9617 -4.08285,-17.7188 -9.79853,-23.2715 -5.71593,-5.5523 -13.39143,-8.3285 -23.02654,-8.3288 -8.65546,3e-4 -15.92269,3.0215 -21.80173,9.0637 -5.71588,5.8793 -8.57378,13.2282 -8.57371,22.0466 -7e-5,15.0246 13.06462,27.3544 39.19411,36.9895 7.34878,2.7764 13.14624,4.9811 17.39239,6.614 20.57677,8.3289 35.192889,18.699 43.848416,31.1103 8.818498,12.4116 13.227832,28.9874 13.228014,49.7276 -1.82e-4,24.1697 -8.165615,44.2567 -24.49632,60.2609 -16.33102,16.0043 -36.90791,24.0064 -61.73073,24.0064 -24.98632,0 -45.15494,-8.4104 -60.50592,-25.2312 -15.35104,-16.8208 -23.76144,-39.8473 -25.23121,-69.0796"
           id="path3220"
           style="font-variant:normal;font-weight:bold;font-stretch:normal;fill:#ffffff;font-family:AvantGarde Md BT;-inkscape-font-specification:AvantGarde Md BT Bold" />
      </g>
      <path
         d="m 191.42191,990.92951 c -17.31091,2.7e-4 -33.6393,3.33882 -48.99012,10.03419 -15.18784,6.5325 -28.99004,16.1559 -41.40137,28.8938 l 0,-33.05363 -48.990123,0 0,356.64723 48.512263,0 0,-119.7631 c 13.06467,13.228 27.3485,23.1819 42.86293,29.8775 15.67748,6.5324 32.66694,9.7812 50.95768,9.7812 20.5767,0 38.85998,-3.3385 54.86449,-10.0341 16.16731,-6.859 31.0506,-17.3842 44.60546,-31.592 12.57449,-13.2281 22.19781,-28.3241 28.8938,-45.3082 4.97369,-12.6167 5.25125,-22.8842 6.5304,-36.4923 -9.76696,-2.8401 -22.63565,-15.5897 -22.63565,-15.5897 -8.97277,-7.1069 -16.47535,-16.6959 -22.51351,-28.7532 -10.37298,-20.7133 -12.01775,-41.9321 -4.91873,-63.662 1.94706,-5.8531 4.40804,-11.2949 7.33592,-16.33 -25.75159,-23.1036 -57.4603,-34.65542 -95.11344,-34.65569 z m -1.93941,46.03889 c 25.96592,3e-4 47.91819,9.2316 65.88235,27.6853 17.96381,18.4541 26.95421,41.3082 26.95448,68.5806 -2.7e-4,25.8029 -9.08034,47.7833 -27.20739,65.9104 -18.1275,17.9641 -39.83891,26.9264 -65.15158,26.9263 -24.82312,10e-5 -46.204,-9.3824 -64.1678,-28.163 -17.80083,-18.7804 -26.701559,-41.4833 -26.701559,-68.1027 0,-24.8228 9.052009,-46.4446 27.179329,-64.8987 18.29047,-18.617 39.36896,-27.9379 63.21217,-27.9382 z"
         id="path3990"
         style="font-size:557.78820801px;font-style:normal;font-weight:normal;line-height:125%;letter-spacing:0px;word-spacing:-0.06px;fill:#ffffff;fill-opacity:1;stroke:none;font-family:Sans" />
    </g>
  </g>
</svg>
