<?xml version="1.0" encoding="UTF-8" standalone="no"?>
<!-- Created with Inkscape (http://www.inkscape.org/) -->

<svg
   xmlns:dc="http://purl.org/dc/elements/1.1/"
   xmlns:cc="http://creativecommons.org/ns#"
   xmlns:rdf="http://www.w3.org/1999/02/22-rdf-syntax-ns#"
   xmlns:svg="http://www.w3.org/2000/svg"
   xmlns="http://www.w3.org/2000/svg"
   version="1.1"
   width="765"
   height="500"
   id="svg2">
  <defs
     id="defs4" />
  <metadata
     id="metadata7">
    <rdf:RDF>
      <cc:Work
         rdf:about="">
        <dc:format>image/svg+xml</dc:format>
        <dc:type
           rdf:resource="http://purl.org/dc/dcmitype/StillImage" />
        <dc:title></dc:title>
      </cc:Work>
    </rdf:RDF>
  </metadata>
  <g
     transform="translate(0,-552.36215)"
     id="layer1">
    <rect
       width="763.66345"
       height="521.99786"
       x="-1559.5491"
       y="179.14359"
       id="rect3992"
       style="fill:#333333;fill-opacity:1;stroke:none" />
    <g
       transform="translate(-132.11053,-90.888835)"
       id="g4006">
      <g
         transform="matrix(0.68880409,0,0,0.69440961,1774.7859,3276.396)"
         id="g3933">
        <rect
           width="850.48334"
           height="97.280319"
           x="-2379.658"
           y="-4436.7319"
           id="rect3935"
           style="fill:#cf3b2c;fill-opacity:1;stroke:none" />
        <text
           x="-2365.7563"
           y="-4370.0283"
           id="text3937"
           xml:space="preserve"
           style="font-size:209.3377533px;font-style:normal;font-variant:normal;font-weight:bold;font-stretch:normal;line-height:125%;letter-spacing:0px;word-spacing:0px;fill:#ffffff;fill-opacity:1;stroke:none;font-family:Blutter;-inkscape-font-specification:Blutter Bold"><tspan
             x="-2365.7563"
             y="-4370.0283"
             id="tspan3939"
             style="font-size:79.04728699px;font-style:normal;font-variant:normal;font-weight:300;font-stretch:normal;fill:#ffffff;font-family:Open Sans;-inkscape-font-specification:Open Sans Light">penerimaan siswa baru</tspan></text>
      </g>
      <path
         d="m 474.99064,-181.01514 0,195.286092 c 13.87469,7.649728 25.63134,21.078567 35.27409,40.333268 11.45669,22.877727 13.26785,45.77525 5.3965,68.66494 -7.1376,20.7553 -20.68706,36.95885 -40.67059,48.56853 l 0,3.82253 48.99021,0 0,-33.08167 c 12.41134,12.90143 26.21353,22.70401 41.40128,29.39972 15.35091,6.53229 31.6793,9.80923 48.99021,9.80923 40.66367,0 74.37349,-13.47157 101.15645,-40.41759 26.78232,-27.10917 40.16431,-60.998313 40.16458,-101.662298 -2.7e-4,-18.780357 -3.33873,-36.6716032 -10.03409,-53.655895 -6.69598,-16.983914 -16.3193,-32.018394 -28.89379,-45.083319 -13.55495,-14.207618 -28.43825,-24.643177 -44.60555,-31.339092 -16.00451,-6.8587 -34.28779,-10.286816 -54.86449,-10.287086 -18.29074,2.7e-4 -35.28011,3.249076 -50.9576,9.781166 -15.51451,6.532606 -29.79834,16.424916 -42.86292,29.652681 l 0,-119.791207 -48.48429,0 z m 137.89209,127.380045 c 25.31258,2.25e-4 47.05214,9.080333 65.17964,27.207389 18.12704,17.9641532 27.17906,39.826762 27.17924,65.629396 -1.8e-4,27.435986 -8.99068,50.379769 -26.95439,68.83357 -17.96416,18.29064 -39.91643,27.43232 -65.88235,27.43223 -23.84321,9e-5 -44.92179,-9.20313 -63.21226,-27.65708 -18.12732,-18.617122 -27.17933,-40.356639 -27.17924,-65.17969 -9e-5,-26.619179 8.90073,-49.3220958 26.70147,-68.102794 17.96389,-18.780294 39.34476,-28.162796 64.16789,-28.163021 z"
         id="text3941"
         style="font-size:557.78820801px;font-style:normal;font-weight:normal;line-height:125%;letter-spacing:0px;word-spacing:-0.06px;fill:#e74c3c;fill-opacity:1;stroke:none;font-family:Sans" />
      <text
         x="244.75975"
         y="351.07285"
         transform="matrix(0.89414459,-0.44777835,0.44777835,0.89414459,0,0)"
         id="text3949"
         xml:space="preserve"
         style="font-size:501.68466187px;font-style:normal;font-weight:normal;line-height:125%;letter-spacing:0px;word-spacing:0px;fill:#e74c3c;fill-opacity:1;stroke:none;font-family:Sans"><tspan
           x="244.75975"
           y="351.07285"
           id="tspan3951"
           style="font-style:normal;font-variant:normal;font-weight:bold;font-stretch:normal;fill:#e74c3c;font-family:AvantGarde Md BT;-inkscape-font-specification:AvantGarde Md BT Bold">s</tspan></text>
      <path
         d="m 208.3414,-99.674044 c -17.31091,2.7e-4 -33.63931,3.33874 -48.99012,10.034128 -15.18784,6.532607 -28.99004,16.155955 -41.40138,28.893799 l 0,-33.053607 -48.990115,0 0,356.647264 48.512255,0 0,-119.76306 c 13.06468,13.228 27.34852,23.18186 42.86293,29.87749 15.67749,6.53238 32.66695,9.78117 50.95769,9.78117 20.5767,0 38.85998,-3.33846 54.86449,-10.03409 16.1673,-6.85896 31.0506,-17.38422 44.60546,-31.59205 12.57449,-13.22798 22.19781,-28.32402 28.8938,-45.308197 4.97369,-12.616656 5.25125,-22.884188 6.5304,-36.492263 -9.76696,-2.840118 -22.63565,-15.589654 -22.63565,-15.589654 -8.97277,-7.107011 -16.47536,-16.695965 -22.51351,-28.753264 -10.37298,-20.7132788 -12.01775,-41.932074 -4.91873,-63.661919 1.94706,-5.853178 4.40804,-11.295015 7.33592,-16.330055 -25.75159,-23.103598 -57.4603,-34.655442 -95.11344,-34.655692 z m -1.93941,46.038949 c 25.96592,2.25e-4 47.91819,9.231526 65.88235,27.685205 17.96381,18.4540752 26.95421,41.308202 26.95448,68.58061 -2.7e-4,25.802904 -9.08035,47.783276 -27.20739,65.91047 -18.1275,17.96402 -39.83891,26.92639 -65.15158,26.9263 -24.82313,9e-5 -46.204,-9.38243 -64.1678,-28.163 -17.80083,-18.780432 -26.70156,-41.483351 -26.70156,-68.1028 0,-24.822781 9.05201,-46.4445438 27.17933,-64.898619 18.29047,-18.616986 39.36896,-27.937941 63.21217,-27.938166 z"
         id="text3953"
         style="font-size:557.78820801px;font-style:normal;font-weight:normal;line-height:125%;letter-spacing:0px;word-spacing:-0.06px;fill:#e74c3c;fill-opacity:1;stroke:none;font-family:Sans" />
    </g>
    <g
       transform="translate(629.21963,-617.33156)"
       id="g3994">
      <path
         d="m 458.07115,351.94935 0,195.2861 c 13.87469,7.64973 25.63134,21.07858 35.27409,40.33332 11.45669,22.87768 13.26785,45.77524 5.39651,68.66488 -7.1376,20.75533 -20.68706,36.95888 -40.6706,48.56857 l 0,3.82252 48.99021,0 0,-33.08167 c 12.41134,12.90143 26.21353,22.70401 41.40128,29.39972 15.35091,6.5323 31.6793,9.80924 48.99021,9.80924 40.66367,0 74.37349,-13.47158 101.15645,-40.41759 26.78232,-27.10918 40.16431,-60.99834 40.16458,-101.66228 -2.7e-4,-18.78039 -3.33873,-36.67161 -10.03408,-53.65594 -6.69599,-16.98389 -16.31931,-32.01838 -28.8938,-45.08332 -13.55495,-14.20757 -28.43824,-24.64315 -44.60555,-31.33905 -16.00451,-6.85869 -34.28779,-10.28682 -54.86449,-10.28709 -18.29074,2.7e-4 -35.28011,3.24906 -50.9576,9.78117 -15.5145,6.53256 -29.79834,16.4249 -42.86292,29.65264 l 0,-119.79122 -48.48429,0 z m 137.89209,127.38006 c 25.31258,2.7e-4 47.05214,9.08034 65.17964,27.20739 18.12705,17.96416 27.17906,39.82676 27.17924,65.62944 -1.8e-4,27.43602 -8.99067,50.37972 -26.95439,68.83352 -17.96416,18.29065 -39.91643,27.43234 -65.88235,27.43225 -23.84321,9e-5 -44.92179,-9.20312 -63.21226,-27.6571 -18.12731,-18.61705 -27.17933,-40.35661 -27.17924,-65.17964 -9e-5,-26.61917 8.90073,-49.3221 26.70147,-68.10284 17.96389,-18.7803 39.34476,-28.16275 64.16789,-28.16302 z"
         id="path3976"
         style="font-size:557.78820801px;font-style:normal;font-weight:normal;line-height:125%;letter-spacing:0px;word-spacing:-0.06px;fill:#e74c3c;fill-opacity:1;stroke:none;font-family:Sans" />
      <text
         x="-9.018815"
         y="820.04401"
         transform="matrix(0.89414459,-0.44777835,0.44777835,0.89414459,0,0)"
         id="text3978"
         xml:space="preserve"
         style="font-size:501.68466187px;font-style:normal;font-weight:normal;line-height:125%;letter-spacing:0px;word-spacing:0px;fill:#e74c3c;fill-opacity:1;stroke:none;font-family:Sans"><tspan
           x="-9.018815"
           y="820.04401"
           id="tspan3980"
           style="font-style:normal;font-variant:normal;font-weight:bold;font-stretch:normal;fill:#e74c3c;font-family:AvantGarde Md BT;-inkscape-font-specification:AvantGarde Md BT Bold">s</tspan></text>
      <path
         d="m 191.42191,433.29046 c -17.31091,2.7e-4 -33.6393,3.33881 -48.99012,10.03417 -15.18784,6.53256 -28.99004,16.15597 -41.40137,28.8938 l 0,-33.05361 -48.990123,0 0,356.64724 48.512263,0 0,-119.76306 c 13.06467,13.228 27.3485,23.18186 42.86293,29.87749 15.67748,6.53238 32.66694,9.78117 50.95768,9.78117 20.5767,0 38.85998,-3.33846 54.86449,-10.03409 16.16731,-6.85896 31.0506,-17.38422 44.60546,-31.59205 12.57449,-13.22801 22.19781,-28.32402 28.8938,-45.30817 4.97369,-12.61668 5.25125,-22.88416 6.5304,-36.49226 -9.76696,-2.8401 -22.63565,-15.5897 -22.63565,-15.5897 -8.97277,-7.10693 -16.47535,-16.6959 -22.51351,-28.75322 -10.37298,-20.71333 -12.01775,-41.93212 -4.91873,-63.66197 1.94706,-5.85314 4.40804,-11.29498 7.33592,-16.33001 -25.75159,-23.10361 -57.4603,-34.65546 -95.11344,-34.65573 z m -1.93941,46.03895 c 25.96592,2.7e-4 47.91819,9.23153 65.88235,27.68525 17.96381,18.45407 26.95421,41.30819 26.95448,68.58061 -2.7e-4,25.80286 -9.08034,47.78328 -27.20739,65.91041 -18.1275,17.96408 -39.83891,26.92642 -65.15158,26.92633 -24.82312,9e-5 -46.204,-9.38246 -64.1678,-28.16302 -17.80083,-18.78039 -26.701559,-41.48331 -26.701559,-68.10275 0,-24.82277 9.052009,-46.44459 27.179329,-64.89867 18.29047,-18.61696 39.36896,-27.93789 63.21217,-27.93816 z"
         id="path3982"
         style="font-size:557.78820801px;font-style:normal;font-weight:normal;line-height:125%;letter-spacing:0px;word-spacing:-0.06px;fill:#e74c3c;fill-opacity:1;stroke:none;font-family:Sans" />
    </g>
    <g
       transform="translate(-9.6666596,-326.44442)"
       id="g4000"
       style="fill:#ffffff">
      <path
         d="m 458.07115,909.58841 0,195.28609 c 13.87469,7.6497 25.63134,21.0786 35.27409,40.3333 11.45669,22.8777 13.26785,45.7752 5.39651,68.6649 -7.1376,20.7553 -20.68706,36.9589 -40.6706,48.5685 l 0,3.8226 48.99021,0 0,-33.0817 c 12.41134,12.9014 26.21353,22.704 41.40128,29.3997 15.35091,6.5323 31.6793,9.8093 48.99021,9.8093 40.66367,0 74.37349,-13.4716 101.15645,-40.4176 26.78232,-27.1092 40.16431,-60.9984 40.16458,-101.6623 -2.7e-4,-18.7804 -3.33873,-36.6716 -10.03408,-53.656 -6.69599,-16.9838 -16.31931,-32.0183 -28.8938,-45.0833 -13.55495,-14.2075 -28.43824,-24.6431 -44.60555,-31.339 -16.00451,-6.85869 -34.28779,-10.28682 -54.86449,-10.28709 -18.29074,2.7e-4 -35.28011,3.24906 -50.9576,9.78117 -15.5145,6.53252 -29.79834,16.42492 -42.86292,29.65262 l 0,-119.79119 -48.48429,0 z m 137.89209,127.37999 c 25.31258,3e-4 47.05214,9.0804 65.17964,27.2074 18.12705,17.9642 27.17906,39.8268 27.17924,65.6295 -1.8e-4,27.436 -8.99067,50.3797 -26.95439,68.8335 -17.96416,18.2906 -39.91643,27.4323 -65.88235,27.4322 -23.84321,10e-5 -44.92179,-9.2031 -63.21226,-27.6571 -18.12731,-18.617 -27.17933,-40.3566 -27.17924,-65.1796 -9e-5,-26.6192 8.90073,-49.3221 26.70147,-68.1028 17.96389,-18.7803 39.34476,-28.1628 64.16789,-28.1631 z"
         id="path3984"
         style="font-size:557.78820801px;font-style:normal;font-weight:normal;line-height:125%;letter-spacing:0px;word-spacing:-0.06px;fill:#ffffff;fill-opacity:1;stroke:none;font-family:Sans" />
      <g
         transform="matrix(0.89414459,-0.44777835,0.44777835,0.89414459,0,0)"
         id="text3986"
         style="font-size:501.68466187px;font-style:normal;font-weight:normal;line-height:125%;letter-spacing:0px;word-spacing:0px;fill:#ffffff;fill-opacity:1;stroke:none;font-family:Sans">
        <path
           d="m -248.67398,1231.4473 45.56316,0 c -5e-5,14.2079 3.91935,25.9661 11.75824,35.2747 8.00205,9.1453 17.96388,13.718 29.88551,13.7179 11.2682,10e-5 20.49514,-3.4294 27.68084,-10.2884 7.34876,-7.0223 11.02321,-15.9226 11.02335,-26.701 -1.4e-4,-9.4719 -2.61308,-17.474 -7.83883,-24.0064 -5.06269,-6.5323 -13.30978,-12.0848 -24.74128,-16.6575 -3.91951,-1.633 -9.47201,-3.756 -16.6575,-6.3691 -19.1072,-7.1854 -31.27369,-12.9012 -36.49952,-17.1474 -9.63526,-7.6754 -16.73919,-16.3307 -21.3118,-25.9661 -4.57267,-9.7983 -6.85899,-21.0666 -6.85897,-33.8049 -2e-5,-21.8832 7.59383,-40.5004 22.78158,-55.8516 15.35097,-15.3508 34.04981,-23.0263 56.09658,-23.0266 23.02641,3e-4 41.31698,6.7776 54.87176,20.332 13.554458,13.3915 20.985001,32.2537 22.291648,56.5865 l -46.543008,0 c -0.81668,-9.9617 -4.08285,-17.7188 -9.79853,-23.2715 -5.71593,-5.5523 -13.39143,-8.3285 -23.02654,-8.3288 -8.65546,3e-4 -15.92269,3.0215 -21.80173,9.0637 -5.71588,5.8793 -8.57378,13.2282 -8.57371,22.0466 -7e-5,15.0246 13.06462,27.3544 39.19411,36.9895 7.34878,2.7764 13.14624,4.9811 17.39239,6.614 20.57677,8.3289 35.192889,18.699 43.848416,31.1103 8.818498,12.4116 13.227832,28.9874 13.228014,49.7276 -1.82e-4,24.1697 -8.165615,44.2567 -24.49632,60.2609 -16.33102,16.0043 -36.90791,24.0064 -61.73073,24.0064 -24.98632,0 -45.15494,-8.4104 -60.50592,-25.2312 -15.35104,-16.8208 -23.76144,-39.8473 -25.23121,-69.0796"
           id="path3220"
           style="font-variant:normal;font-weight:bold;font-stretch:normal;fill:#ffffff;font-family:AvantGarde Md BT;-inkscape-font-specification:AvantGarde Md BT Bold" />
      </g>
      <path
         d="m 191.42191,990.92951 c -17.31091,2.7e-4 -33.6393,3.33882 -48.99012,10.03419 -15.18784,6.5325 -28.99004,16.1559 -41.40137,28.8938 l 0,-33.05363 -48.990123,0 0,356.64723 48.512263,0 0,-119.7631 c 13.06467,13.228 27.3485,23.1819 42.86293,29.8775 15.67748,6.5324 32.66694,9.7812 50.95768,9.7812 20.5767,0 38.85998,-3.3385 54.86449,-10.0341 16.16731,-6.859 31.0506,-17.3842 44.60546,-31.592 12.57449,-13.2281 22.19781,-28.3241 28.8938,-45.3082 4.97369,-12.6167 5.25125,-22.8842 6.5304,-36.4923 -9.76696,-2.8401 -22.63565,-15.5897 -22.63565,-15.5897 -8.97277,-7.1069 -16.47535,-16.6959 -22.51351,-28.7532 -10.37298,-20.7133 -12.01775,-41.9321 -4.91873,-63.662 1.94706,-5.8531 4.40804,-11.2949 7.33592,-16.33 -25.75159,-23.1036 -57.4603,-34.65542 -95.11344,-34.65569 z m -1.93941,46.03889 c 25.96592,3e-4 47.91819,9.2316 65.88235,27.6853 17.96381,18.4541 26.95421,41.3082 26.95448,68.5806 -2.7e-4,25.8029 -9.08034,47.7833 -27.20739,65.9104 -18.1275,17.9641 -39.83891,26.9264 -65.15158,26.9263 -24.82312,10e-5 -46.204,-9.3824 -64.1678,-28.163 -17.80083,-18.7804 -26.701559,-41.4833 -26.701559,-68.1027 0,-24.8228 9.052009,-46.4446 27.179329,-64.8987 18.29047,-18.617 39.36896,-27.9379 63.21217,-27.9382 z"
         id="path3990"
         style="font-size:557.78820801px;font-style:normal;font-weight:normal;line-height:125%;letter-spacing:0px;word-spacing:-0.06px;fill:#ffffff;fill-opacity:1;stroke:none;font-family:Sans" />
    </g>
  </g>
</svg>
